<mxfile host="app.diagrams.net" modified="2023-11-06T05:17:20.083Z" agent="Mozilla/5.0 (Windows NT 10.0; Win64; x64) AppleWebKit/537.36 (KHTML, like Gecko) Chrome/116.0.0.0 Safari/537.36 OPR/102.0.0.0" etag="g9QXf6L4jiWwJV1lBvFf" version="22.0.8" type="github">
  <diagram name="Page-1" id="Thbvb4czvhooxQZtnea6">
    <mxGraphModel dx="1009" dy="503" grid="1" gridSize="10" guides="1" tooltips="1" connect="1" arrows="1" fold="1" page="1" pageScale="1" pageWidth="850" pageHeight="1100" math="0" shadow="0">
      <root>
        <mxCell id="0" />
        <mxCell id="1" parent="0" />
        <mxCell id="lEnhrELUg3Bk0tctdhmQ-1" value="" style="swimlane;startSize=0;" vertex="1" parent="1">
          <mxGeometry x="70" y="10" width="780" height="510" as="geometry" />
        </mxCell>
        <mxCell id="lEnhrELUg3Bk0tctdhmQ-3" value="Login" style="ellipse;whiteSpace=wrap;html=1;align=center;" vertex="1" parent="lEnhrELUg3Bk0tctdhmQ-1">
          <mxGeometry x="30" y="210" width="100" height="40" as="geometry" />
        </mxCell>
        <mxCell id="lEnhrELUg3Bk0tctdhmQ-5" value="View Book" style="ellipse;whiteSpace=wrap;html=1;align=center;" vertex="1" parent="lEnhrELUg3Bk0tctdhmQ-1">
          <mxGeometry x="150" y="40" width="100" height="40" as="geometry" />
        </mxCell>
        <mxCell id="lEnhrELUg3Bk0tctdhmQ-6" value="Add Address" style="ellipse;whiteSpace=wrap;html=1;align=center;" vertex="1" parent="lEnhrELUg3Bk0tctdhmQ-1">
          <mxGeometry x="190" y="100" width="100" height="40" as="geometry" />
        </mxCell>
        <mxCell id="lEnhrELUg3Bk0tctdhmQ-7" value="Logout" style="ellipse;whiteSpace=wrap;html=1;align=center;" vertex="1" parent="lEnhrELUg3Bk0tctdhmQ-1">
          <mxGeometry x="240" y="150" width="100" height="40" as="geometry" />
        </mxCell>
        <mxCell id="lEnhrELUg3Bk0tctdhmQ-8" value="View Feedback" style="ellipse;whiteSpace=wrap;html=1;align=center;" vertex="1" parent="lEnhrELUg3Bk0tctdhmQ-1">
          <mxGeometry x="190" y="410" width="100" height="40" as="geometry" />
        </mxCell>
        <mxCell id="lEnhrELUg3Bk0tctdhmQ-9" value="Login via Google" style="ellipse;whiteSpace=wrap;html=1;align=center;" vertex="1" parent="lEnhrELUg3Bk0tctdhmQ-1">
          <mxGeometry x="30" y="320" width="100" height="40" as="geometry" />
        </mxCell>
        <mxCell id="lEnhrELUg3Bk0tctdhmQ-10" value="extends" style="endArrow=classic;html=1;rounded=0;exitX=0.5;exitY=0;exitDx=0;exitDy=0;entryX=0.5;entryY=1;entryDx=0;entryDy=0;dashed=1;" edge="1" parent="lEnhrELUg3Bk0tctdhmQ-1" source="lEnhrELUg3Bk0tctdhmQ-9" target="lEnhrELUg3Bk0tctdhmQ-3">
          <mxGeometry width="50" height="50" relative="1" as="geometry">
            <mxPoint x="330" y="280" as="sourcePoint" />
            <mxPoint x="380" y="230" as="targetPoint" />
          </mxGeometry>
        </mxCell>
        <mxCell id="lEnhrELUg3Bk0tctdhmQ-11" value="View Cart" style="ellipse;whiteSpace=wrap;html=1;align=center;" vertex="1" parent="lEnhrELUg3Bk0tctdhmQ-1">
          <mxGeometry x="430" y="180" width="100" height="40" as="geometry" />
        </mxCell>
        <mxCell id="lEnhrELUg3Bk0tctdhmQ-12" value="View Order" style="ellipse;whiteSpace=wrap;html=1;align=center;" vertex="1" parent="lEnhrELUg3Bk0tctdhmQ-1">
          <mxGeometry x="220" y="280" width="100" height="40" as="geometry" />
        </mxCell>
        <mxCell id="lEnhrELUg3Bk0tctdhmQ-13" value="Filter Book" style="ellipse;whiteSpace=wrap;html=1;align=center;" vertex="1" parent="lEnhrELUg3Bk0tctdhmQ-1">
          <mxGeometry x="390" y="10" width="100" height="40" as="geometry" />
        </mxCell>
        <mxCell id="lEnhrELUg3Bk0tctdhmQ-14" value="Search Book" style="ellipse;whiteSpace=wrap;html=1;align=center;" vertex="1" parent="lEnhrELUg3Bk0tctdhmQ-1">
          <mxGeometry x="390" y="60" width="100" height="40" as="geometry" />
        </mxCell>
        <mxCell id="lEnhrELUg3Bk0tctdhmQ-15" value="extends" style="endArrow=classic;html=1;rounded=0;exitX=0;exitY=0.5;exitDx=0;exitDy=0;entryX=1;entryY=0.5;entryDx=0;entryDy=0;dashed=1;" edge="1" parent="lEnhrELUg3Bk0tctdhmQ-1" source="lEnhrELUg3Bk0tctdhmQ-14" target="lEnhrELUg3Bk0tctdhmQ-5">
          <mxGeometry width="50" height="50" relative="1" as="geometry">
            <mxPoint x="330" y="280" as="sourcePoint" />
            <mxPoint x="380" y="230" as="targetPoint" />
          </mxGeometry>
        </mxCell>
        <mxCell id="lEnhrELUg3Bk0tctdhmQ-16" value="extends" style="endArrow=classic;html=1;rounded=0;exitX=0;exitY=0.5;exitDx=0;exitDy=0;entryX=1;entryY=0.5;entryDx=0;entryDy=0;dashed=1;" edge="1" parent="lEnhrELUg3Bk0tctdhmQ-1" source="lEnhrELUg3Bk0tctdhmQ-13" target="lEnhrELUg3Bk0tctdhmQ-5">
          <mxGeometry width="50" height="50" relative="1" as="geometry">
            <mxPoint x="330" y="280" as="sourcePoint" />
            <mxPoint x="380" y="230" as="targetPoint" />
          </mxGeometry>
        </mxCell>
        <mxCell id="lEnhrELUg3Bk0tctdhmQ-17" value="include" style="endArrow=classic;html=1;rounded=0;exitX=0;exitY=0.5;exitDx=0;exitDy=0;entryX=1;entryY=0.5;entryDx=0;entryDy=0;dashed=1;" edge="1" parent="lEnhrELUg3Bk0tctdhmQ-1" source="lEnhrELUg3Bk0tctdhmQ-5" target="lEnhrELUg3Bk0tctdhmQ-3">
          <mxGeometry width="50" height="50" relative="1" as="geometry">
            <mxPoint x="330" y="280" as="sourcePoint" />
            <mxPoint x="380" y="230" as="targetPoint" />
          </mxGeometry>
        </mxCell>
        <mxCell id="lEnhrELUg3Bk0tctdhmQ-18" value="include" style="endArrow=classic;html=1;rounded=0;exitX=0;exitY=0.5;exitDx=0;exitDy=0;entryX=1;entryY=0.5;entryDx=0;entryDy=0;dashed=1;" edge="1" parent="lEnhrELUg3Bk0tctdhmQ-1" source="lEnhrELUg3Bk0tctdhmQ-6" target="lEnhrELUg3Bk0tctdhmQ-3">
          <mxGeometry width="50" height="50" relative="1" as="geometry">
            <mxPoint x="330" y="280" as="sourcePoint" />
            <mxPoint x="380" y="230" as="targetPoint" />
          </mxGeometry>
        </mxCell>
        <mxCell id="lEnhrELUg3Bk0tctdhmQ-19" value="include" style="endArrow=classic;html=1;rounded=0;exitX=0;exitY=0.5;exitDx=0;exitDy=0;entryX=1;entryY=0.5;entryDx=0;entryDy=0;dashed=1;" edge="1" parent="lEnhrELUg3Bk0tctdhmQ-1" source="lEnhrELUg3Bk0tctdhmQ-7" target="lEnhrELUg3Bk0tctdhmQ-3">
          <mxGeometry width="50" height="50" relative="1" as="geometry">
            <mxPoint x="330" y="280" as="sourcePoint" />
            <mxPoint x="380" y="230" as="targetPoint" />
          </mxGeometry>
        </mxCell>
        <mxCell id="lEnhrELUg3Bk0tctdhmQ-20" value="include" style="endArrow=classic;html=1;rounded=0;exitX=0;exitY=0.5;exitDx=0;exitDy=0;entryX=1;entryY=0.5;entryDx=0;entryDy=0;dashed=1;" edge="1" parent="lEnhrELUg3Bk0tctdhmQ-1" source="lEnhrELUg3Bk0tctdhmQ-11" target="lEnhrELUg3Bk0tctdhmQ-3">
          <mxGeometry width="50" height="50" relative="1" as="geometry">
            <mxPoint x="330" y="280" as="sourcePoint" />
            <mxPoint x="380" y="230" as="targetPoint" />
          </mxGeometry>
        </mxCell>
        <mxCell id="lEnhrELUg3Bk0tctdhmQ-21" value="Add to Cart" style="ellipse;whiteSpace=wrap;html=1;align=center;" vertex="1" parent="lEnhrELUg3Bk0tctdhmQ-1">
          <mxGeometry x="630" y="80" width="100" height="40" as="geometry" />
        </mxCell>
        <mxCell id="lEnhrELUg3Bk0tctdhmQ-22" value="Update Cart" style="ellipse;whiteSpace=wrap;html=1;align=center;" vertex="1" parent="lEnhrELUg3Bk0tctdhmQ-1">
          <mxGeometry x="630" y="140" width="100" height="40" as="geometry" />
        </mxCell>
        <mxCell id="lEnhrELUg3Bk0tctdhmQ-23" value="Delete Items in Cart" style="ellipse;whiteSpace=wrap;html=1;align=center;" vertex="1" parent="lEnhrELUg3Bk0tctdhmQ-1">
          <mxGeometry x="630" y="200" width="100" height="40" as="geometry" />
        </mxCell>
        <mxCell id="lEnhrELUg3Bk0tctdhmQ-24" value="Checkout" style="ellipse;whiteSpace=wrap;html=1;align=center;" vertex="1" parent="lEnhrELUg3Bk0tctdhmQ-1">
          <mxGeometry x="630" y="260" width="100" height="40" as="geometry" />
        </mxCell>
        <mxCell id="lEnhrELUg3Bk0tctdhmQ-25" style="edgeStyle=orthogonalEdgeStyle;rounded=0;orthogonalLoop=1;jettySize=auto;html=1;exitX=0.5;exitY=1;exitDx=0;exitDy=0;" edge="1" parent="lEnhrELUg3Bk0tctdhmQ-1" source="lEnhrELUg3Bk0tctdhmQ-22" target="lEnhrELUg3Bk0tctdhmQ-22">
          <mxGeometry relative="1" as="geometry" />
        </mxCell>
        <mxCell id="lEnhrELUg3Bk0tctdhmQ-26" value="extends" style="endArrow=classic;html=1;rounded=0;exitX=0;exitY=0.5;exitDx=0;exitDy=0;entryX=1;entryY=0.5;entryDx=0;entryDy=0;dashed=1;" edge="1" parent="lEnhrELUg3Bk0tctdhmQ-1" source="lEnhrELUg3Bk0tctdhmQ-21" target="lEnhrELUg3Bk0tctdhmQ-11">
          <mxGeometry width="50" height="50" relative="1" as="geometry">
            <mxPoint x="330" y="280" as="sourcePoint" />
            <mxPoint x="380" y="230" as="targetPoint" />
          </mxGeometry>
        </mxCell>
        <mxCell id="lEnhrELUg3Bk0tctdhmQ-27" value="extends" style="endArrow=classic;html=1;rounded=0;exitX=0;exitY=0.5;exitDx=0;exitDy=0;entryX=1;entryY=0.5;entryDx=0;entryDy=0;dashed=1;" edge="1" parent="lEnhrELUg3Bk0tctdhmQ-1" source="lEnhrELUg3Bk0tctdhmQ-22" target="lEnhrELUg3Bk0tctdhmQ-11">
          <mxGeometry width="50" height="50" relative="1" as="geometry">
            <mxPoint x="330" y="280" as="sourcePoint" />
            <mxPoint x="380" y="230" as="targetPoint" />
          </mxGeometry>
        </mxCell>
        <mxCell id="lEnhrELUg3Bk0tctdhmQ-28" value="extends" style="endArrow=classic;html=1;rounded=0;exitX=0;exitY=0.5;exitDx=0;exitDy=0;entryX=1;entryY=0.5;entryDx=0;entryDy=0;dashed=1;" edge="1" parent="lEnhrELUg3Bk0tctdhmQ-1" source="lEnhrELUg3Bk0tctdhmQ-23" target="lEnhrELUg3Bk0tctdhmQ-11">
          <mxGeometry width="50" height="50" relative="1" as="geometry">
            <mxPoint x="330" y="280" as="sourcePoint" />
            <mxPoint x="380" y="230" as="targetPoint" />
          </mxGeometry>
        </mxCell>
        <mxCell id="lEnhrELUg3Bk0tctdhmQ-29" value="extends" style="endArrow=classic;html=1;rounded=0;exitX=0;exitY=0.5;exitDx=0;exitDy=0;entryX=1;entryY=0.5;entryDx=0;entryDy=0;dashed=1;" edge="1" parent="lEnhrELUg3Bk0tctdhmQ-1" source="lEnhrELUg3Bk0tctdhmQ-24" target="lEnhrELUg3Bk0tctdhmQ-11">
          <mxGeometry width="50" height="50" relative="1" as="geometry">
            <mxPoint x="330" y="280" as="sourcePoint" />
            <mxPoint x="380" y="230" as="targetPoint" />
          </mxGeometry>
        </mxCell>
        <mxCell id="lEnhrELUg3Bk0tctdhmQ-30" value="include" style="endArrow=classic;html=1;rounded=0;exitX=0;exitY=0.5;exitDx=0;exitDy=0;entryX=1;entryY=0.5;entryDx=0;entryDy=0;dashed=1;" edge="1" parent="lEnhrELUg3Bk0tctdhmQ-1" source="lEnhrELUg3Bk0tctdhmQ-12" target="lEnhrELUg3Bk0tctdhmQ-3">
          <mxGeometry width="50" height="50" relative="1" as="geometry">
            <mxPoint x="330" y="280" as="sourcePoint" />
            <mxPoint x="380" y="230" as="targetPoint" />
          </mxGeometry>
        </mxCell>
        <mxCell id="lEnhrELUg3Bk0tctdhmQ-31" value="Cancel Order" style="ellipse;whiteSpace=wrap;html=1;align=center;" vertex="1" parent="lEnhrELUg3Bk0tctdhmQ-1">
          <mxGeometry x="430" y="280" width="100" height="40" as="geometry" />
        </mxCell>
        <mxCell id="lEnhrELUg3Bk0tctdhmQ-32" value="extends" style="endArrow=classic;html=1;rounded=0;exitX=0;exitY=0.5;exitDx=0;exitDy=0;entryX=1;entryY=0.5;entryDx=0;entryDy=0;dashed=1;" edge="1" parent="lEnhrELUg3Bk0tctdhmQ-1" source="lEnhrELUg3Bk0tctdhmQ-31" target="lEnhrELUg3Bk0tctdhmQ-12">
          <mxGeometry width="50" height="50" relative="1" as="geometry">
            <mxPoint x="330" y="280" as="sourcePoint" />
            <mxPoint x="380" y="230" as="targetPoint" />
          </mxGeometry>
        </mxCell>
        <mxCell id="lEnhrELUg3Bk0tctdhmQ-33" value="include" style="endArrow=classic;html=1;rounded=0;exitX=0;exitY=0.5;exitDx=0;exitDy=0;entryX=1;entryY=0.5;entryDx=0;entryDy=0;dashed=1;" edge="1" parent="lEnhrELUg3Bk0tctdhmQ-1" source="lEnhrELUg3Bk0tctdhmQ-8" target="lEnhrELUg3Bk0tctdhmQ-3">
          <mxGeometry width="50" height="50" relative="1" as="geometry">
            <mxPoint x="330" y="280" as="sourcePoint" />
            <mxPoint x="380" y="230" as="targetPoint" />
          </mxGeometry>
        </mxCell>
        <mxCell id="lEnhrELUg3Bk0tctdhmQ-34" value="Create Feedback" style="ellipse;whiteSpace=wrap;html=1;align=center;" vertex="1" parent="lEnhrELUg3Bk0tctdhmQ-1">
          <mxGeometry x="410" y="360" width="100" height="40" as="geometry" />
        </mxCell>
        <mxCell id="lEnhrELUg3Bk0tctdhmQ-35" value="Update Feedback" style="ellipse;whiteSpace=wrap;html=1;align=center;" vertex="1" parent="lEnhrELUg3Bk0tctdhmQ-1">
          <mxGeometry x="410" y="410" width="100" height="40" as="geometry" />
        </mxCell>
        <mxCell id="lEnhrELUg3Bk0tctdhmQ-36" value="Delete Feedback" style="ellipse;whiteSpace=wrap;html=1;align=center;" vertex="1" parent="lEnhrELUg3Bk0tctdhmQ-1">
          <mxGeometry x="410" y="460" width="100" height="40" as="geometry" />
        </mxCell>
        <mxCell id="lEnhrELUg3Bk0tctdhmQ-37" value="extends" style="endArrow=classic;html=1;rounded=0;exitX=0;exitY=0.5;exitDx=0;exitDy=0;entryX=1;entryY=0.5;entryDx=0;entryDy=0;dashed=1;" edge="1" parent="lEnhrELUg3Bk0tctdhmQ-1" source="lEnhrELUg3Bk0tctdhmQ-34" target="lEnhrELUg3Bk0tctdhmQ-8">
          <mxGeometry width="50" height="50" relative="1" as="geometry">
            <mxPoint x="330" y="280" as="sourcePoint" />
            <mxPoint x="380" y="230" as="targetPoint" />
          </mxGeometry>
        </mxCell>
        <mxCell id="lEnhrELUg3Bk0tctdhmQ-38" value="extends" style="endArrow=classic;html=1;rounded=0;exitX=0;exitY=0.5;exitDx=0;exitDy=0;entryX=1;entryY=0.5;entryDx=0;entryDy=0;dashed=1;" edge="1" parent="lEnhrELUg3Bk0tctdhmQ-1" source="lEnhrELUg3Bk0tctdhmQ-35" target="lEnhrELUg3Bk0tctdhmQ-8">
          <mxGeometry width="50" height="50" relative="1" as="geometry">
            <mxPoint x="330" y="280" as="sourcePoint" />
            <mxPoint x="380" y="230" as="targetPoint" />
          </mxGeometry>
        </mxCell>
        <mxCell id="lEnhrELUg3Bk0tctdhmQ-39" value="extends" style="endArrow=classic;html=1;rounded=0;exitX=0;exitY=0.5;exitDx=0;exitDy=0;entryX=1;entryY=0.5;entryDx=0;entryDy=0;dashed=1;" edge="1" parent="lEnhrELUg3Bk0tctdhmQ-1" source="lEnhrELUg3Bk0tctdhmQ-36" target="lEnhrELUg3Bk0tctdhmQ-8">
          <mxGeometry width="50" height="50" relative="1" as="geometry">
            <mxPoint x="330" y="280" as="sourcePoint" />
            <mxPoint x="380" y="230" as="targetPoint" />
          </mxGeometry>
        </mxCell>
        <mxCell id="lEnhrELUg3Bk0tctdhmQ-2" value="Customer" style="shape=umlActor;verticalLabelPosition=bottom;verticalAlign=top;html=1;outlineConnect=0;" vertex="1" parent="1">
          <mxGeometry x="20" y="210" width="30" height="60" as="geometry" />
        </mxCell>
        <mxCell id="lEnhrELUg3Bk0tctdhmQ-4" value="" style="endArrow=none;html=1;rounded=0;entryX=0;entryY=0.5;entryDx=0;entryDy=0;" edge="1" parent="1" source="lEnhrELUg3Bk0tctdhmQ-2" target="lEnhrELUg3Bk0tctdhmQ-3">
          <mxGeometry relative="1" as="geometry">
            <mxPoint x="340" y="260" as="sourcePoint" />
            <mxPoint x="500" y="260" as="targetPoint" />
          </mxGeometry>
        </mxCell>
      </root>
    </mxGraphModel>
  </diagram>
</mxfile>
